<mxfile host="Electron" modified="2023-12-03T16:06:34.895Z" agent="Mozilla/5.0 (Windows NT 10.0; Win64; x64) AppleWebKit/537.36 (KHTML, like Gecko) draw.io/22.0.3 Chrome/114.0.5735.289 Electron/25.8.4 Safari/537.36" etag="2t1XymnpBp-ON6ETgvCI" version="22.0.3" type="device">
  <diagram id="C5RBs43oDa-KdzZeNtuy" name="Page-1">
    <mxGraphModel dx="2554" dy="2179" grid="1" gridSize="10" guides="1" tooltips="1" connect="1" arrows="1" fold="1" page="1" pageScale="1" pageWidth="827" pageHeight="1169" math="0" shadow="0">
      <root>
        <mxCell id="WIyWlLk6GJQsqaUBKTNV-0" />
        <mxCell id="WIyWlLk6GJQsqaUBKTNV-1" parent="WIyWlLk6GJQsqaUBKTNV-0" />
        <mxCell id="jaS103z9ZxJK8VQjzJih-0" style="edgeStyle=orthogonalEdgeStyle;rounded=0;orthogonalLoop=1;jettySize=auto;html=1;" parent="WIyWlLk6GJQsqaUBKTNV-1" source="jaS103z9ZxJK8VQjzJih-1" target="jaS103z9ZxJK8VQjzJih-5" edge="1">
          <mxGeometry relative="1" as="geometry" />
        </mxCell>
        <mxCell id="jaS103z9ZxJK8VQjzJih-1" value="start" style="ellipse;whiteSpace=wrap;html=1;" parent="WIyWlLk6GJQsqaUBKTNV-1" vertex="1">
          <mxGeometry x="30" y="360" width="120" height="80" as="geometry" />
        </mxCell>
        <mxCell id="jaS103z9ZxJK8VQjzJih-24" value="" style="edgeStyle=orthogonalEdgeStyle;rounded=0;orthogonalLoop=1;jettySize=auto;html=1;" parent="WIyWlLk6GJQsqaUBKTNV-1" source="jaS103z9ZxJK8VQjzJih-5" target="jaS103z9ZxJK8VQjzJih-23" edge="1">
          <mxGeometry relative="1" as="geometry" />
        </mxCell>
        <mxCell id="jaS103z9ZxJK8VQjzJih-5" value="&lt;div style=&quot;color: rgb(204, 204, 204); background-color: rgb(31, 31, 31); font-family: Consolas, &amp;quot;Courier New&amp;quot;, monospace; font-size: 14px; line-height: 19px;&quot;&gt;&lt;div style=&quot;line-height: 19px;&quot;&gt;&lt;div&gt;book &lt;span style=&quot;color: #9cdcfe;&quot;&gt;temp&lt;/span&gt;[&lt;span style=&quot;color: #b5cea8;&quot;&gt;100&lt;/span&gt;];&lt;/div&gt;&lt;div&gt;&amp;nbsp; &amp;nbsp; &lt;span style=&quot;color: #569cd6;&quot;&gt;int&lt;/span&gt; &lt;span style=&quot;color: #9cdcfe;&quot;&gt;n&lt;/span&gt;,&lt;span style=&quot;color: #9cdcfe;&quot;&gt;i&lt;/span&gt;;&lt;/div&gt;&lt;div&gt;&amp;nbsp; &amp;nbsp; &lt;span style=&quot;color: #569cd6;&quot;&gt;int&lt;/span&gt; &lt;span style=&quot;color: #9cdcfe;&quot;&gt;choice&lt;/span&gt;;&lt;/div&gt;&lt;div&gt;&amp;nbsp; &amp;nbsp; &lt;span style=&quot;color: #569cd6;&quot;&gt;int&lt;/span&gt; &lt;span style=&quot;color: #9cdcfe;&quot;&gt;index&lt;/span&gt;;&lt;/div&gt;&lt;/div&gt;&lt;/div&gt;" style="shape=parallelogram;perimeter=parallelogramPerimeter;whiteSpace=wrap;html=1;fixedSize=1;" parent="WIyWlLk6GJQsqaUBKTNV-1" vertex="1">
          <mxGeometry x="10" y="490" width="160" height="60" as="geometry" />
        </mxCell>
        <mxCell id="jaS103z9ZxJK8VQjzJih-9" value="" style="edgeStyle=orthogonalEdgeStyle;rounded=0;orthogonalLoop=1;jettySize=auto;html=1;" parent="WIyWlLk6GJQsqaUBKTNV-1" source="jaS103z9ZxJK8VQjzJih-10" target="jaS103z9ZxJK8VQjzJih-11" edge="1">
          <mxGeometry relative="1" as="geometry" />
        </mxCell>
        <mxCell id="jaS103z9ZxJK8VQjzJih-10" value="struct Books" style="shape=parallelogram;perimeter=parallelogramPerimeter;whiteSpace=wrap;html=1;fixedSize=1;" parent="WIyWlLk6GJQsqaUBKTNV-1" vertex="1">
          <mxGeometry x="294" y="-150" width="120" height="60" as="geometry" />
        </mxCell>
        <mxCell id="HDL38AltIUm5IQfEKSuB-1" value="" style="edgeStyle=orthogonalEdgeStyle;rounded=0;orthogonalLoop=1;jettySize=auto;html=1;" parent="WIyWlLk6GJQsqaUBKTNV-1" source="jaS103z9ZxJK8VQjzJih-11" target="HDL38AltIUm5IQfEKSuB-0" edge="1">
          <mxGeometry relative="1" as="geometry" />
        </mxCell>
        <mxCell id="jaS103z9ZxJK8VQjzJih-11" value="&lt;div style=&quot;color: rgb(204, 204, 204); background-color: rgb(31, 31, 31); font-family: Consolas, &amp;quot;Courier New&amp;quot;, monospace; font-size: 14px; line-height: 19px;&quot;&gt;&lt;div style=&quot;line-height: 19px;&quot;&gt;&lt;div&gt;int &lt;span style=&quot;color: #9cdcfe;&quot;&gt;book_id&lt;/span&gt;;&lt;/div&gt;&lt;div&gt;&amp;nbsp; &amp;nbsp; &lt;span style=&quot;color: #569cd6;&quot;&gt;char&lt;/span&gt; &lt;span style=&quot;color: #9cdcfe;&quot;&gt;book_name&lt;/span&gt;[&lt;span style=&quot;color: #b5cea8;&quot;&gt;100&lt;/span&gt;];&lt;/div&gt;&lt;div&gt;&amp;nbsp; &amp;nbsp; &lt;span style=&quot;color: #569cd6;&quot;&gt;char&lt;/span&gt; &lt;span style=&quot;color: #9cdcfe;&quot;&gt;author&lt;/span&gt;[&lt;span style=&quot;color: #b5cea8;&quot;&gt;100&lt;/span&gt;];&lt;/div&gt;&lt;div&gt;&amp;nbsp; &amp;nbsp; &lt;span style=&quot;color: #569cd6;&quot;&gt;long&lt;/span&gt; &lt;span style=&quot;color: #9cdcfe;&quot;&gt;price&lt;/span&gt;;&lt;/div&gt;&lt;div&gt;&amp;nbsp; &amp;nbsp; &lt;span style=&quot;color: #569cd6;&quot;&gt;char&lt;/span&gt; &lt;span style=&quot;color: #9cdcfe;&quot;&gt;category&lt;/span&gt;[&lt;span style=&quot;color: #b5cea8;&quot;&gt;100&lt;/span&gt;]; &lt;/div&gt;&lt;/div&gt;&lt;/div&gt;" style="rounded=0;whiteSpace=wrap;html=1;" parent="WIyWlLk6GJQsqaUBKTNV-1" vertex="1">
          <mxGeometry x="500" y="-190" width="220" height="140" as="geometry" />
        </mxCell>
        <mxCell id="jaS103z9ZxJK8VQjzJih-14" style="edgeStyle=orthogonalEdgeStyle;rounded=0;orthogonalLoop=1;jettySize=auto;html=1;" parent="WIyWlLk6GJQsqaUBKTNV-1" source="jaS103z9ZxJK8VQjzJih-15" target="jaS103z9ZxJK8VQjzJih-16" edge="1">
          <mxGeometry relative="1" as="geometry" />
        </mxCell>
        <mxCell id="jaS103z9ZxJK8VQjzJih-15" value="input ( book&amp;nbsp; *temp)" style="rounded=0;whiteSpace=wrap;html=1;shape=label;fixedSize=1;" parent="WIyWlLk6GJQsqaUBKTNV-1" vertex="1">
          <mxGeometry x="290" y="10" width="270" height="60" as="geometry" />
        </mxCell>
        <mxCell id="jaS103z9ZxJK8VQjzJih-16" value="&lt;div style=&quot;color: rgb(204, 204, 204); background-color: rgb(31, 31, 31); font-family: Consolas, &amp;quot;Courier New&amp;quot;, monospace; font-size: 14px; line-height: 19px;&quot;&gt;&lt;div style=&quot;line-height: 19px;&quot;&gt;&lt;div&gt;printf(&lt;span style=&quot;color: #ce9178;&quot;&gt;&quot;nhap ma sach:&quot;&lt;/span&gt;);&lt;/div&gt;&lt;div&gt;&amp;nbsp; &amp;nbsp; &lt;span style=&quot;color: #dcdcaa;&quot;&gt;scanf&lt;/span&gt;(&lt;span style=&quot;color: #ce9178;&quot;&gt;&quot;&lt;/span&gt;&lt;span style=&quot;color: #9cdcfe;&quot;&gt;%d&lt;/span&gt;&lt;span style=&quot;color: #ce9178;&quot;&gt;&quot;&lt;/span&gt;,&lt;span style=&quot;color: #d4d4d4;&quot;&gt;&amp;amp;&lt;/span&gt;&lt;span style=&quot;color: #9cdcfe;&quot;&gt;temp&lt;/span&gt;-&amp;gt;&lt;span style=&quot;color: #9cdcfe;&quot;&gt;book_id&lt;/span&gt;);&lt;/div&gt;&lt;div&gt;&amp;nbsp; &amp;nbsp; &lt;span style=&quot;color: #dcdcaa;&quot;&gt;printf&lt;/span&gt;(&lt;span style=&quot;color: #ce9178;&quot;&gt;&quot;nhap ten sach:&quot;&lt;/span&gt;);&lt;/div&gt;&lt;div&gt;&amp;nbsp; &amp;nbsp; &lt;span style=&quot;color: #dcdcaa;&quot;&gt;getchar&lt;/span&gt;();&lt;/div&gt;&lt;div&gt;&amp;nbsp; &amp;nbsp; &lt;span style=&quot;color: #dcdcaa;&quot;&gt;gets&lt;/span&gt;(&lt;span style=&quot;color: #9cdcfe;&quot;&gt;temp&lt;/span&gt;-&amp;gt;&lt;span style=&quot;color: #9cdcfe;&quot;&gt;book_name&lt;/span&gt;);&lt;/div&gt;&lt;div&gt;&amp;nbsp; &amp;nbsp; &lt;span style=&quot;color: #dcdcaa;&quot;&gt;printf&lt;/span&gt;(&lt;span style=&quot;color: #ce9178;&quot;&gt;&quot;nhap tac gia:&quot;&lt;/span&gt;);&lt;/div&gt;&lt;div&gt;&amp;nbsp; &amp;nbsp; &lt;span style=&quot;color: #dcdcaa;&quot;&gt;getchar&lt;/span&gt;();&lt;/div&gt;&lt;div&gt;&amp;nbsp; &amp;nbsp; &lt;span style=&quot;color: #dcdcaa;&quot;&gt;gets&lt;/span&gt;(&lt;span style=&quot;color: #9cdcfe;&quot;&gt;temp&lt;/span&gt;-&amp;gt;&lt;span style=&quot;color: #9cdcfe;&quot;&gt;author&lt;/span&gt;);&lt;/div&gt;&lt;div&gt;&amp;nbsp; &amp;nbsp; &lt;span style=&quot;color: #dcdcaa;&quot;&gt;printf&lt;/span&gt;(&lt;span style=&quot;color: #ce9178;&quot;&gt;&quot;nhap gia:&quot;&lt;/span&gt;);&lt;/div&gt;&lt;div&gt;&amp;nbsp; &amp;nbsp; &lt;span style=&quot;color: #dcdcaa;&quot;&gt;scanf&lt;/span&gt;(&lt;span style=&quot;color: #ce9178;&quot;&gt;&quot;&lt;/span&gt;&lt;span style=&quot;color: #9cdcfe;&quot;&gt;%d&lt;/span&gt;&lt;span style=&quot;color: #ce9178;&quot;&gt;&quot;&lt;/span&gt;,&lt;span style=&quot;color: #d4d4d4;&quot;&gt;&amp;amp;&lt;/span&gt;&lt;span style=&quot;color: #9cdcfe;&quot;&gt;temp&lt;/span&gt;-&amp;gt;&lt;span style=&quot;color: #9cdcfe;&quot;&gt;price&lt;/span&gt;);&lt;/div&gt;&lt;div&gt;&amp;nbsp; &amp;nbsp; &lt;span style=&quot;color: #dcdcaa;&quot;&gt;printf&lt;/span&gt;(&lt;span style=&quot;color: #ce9178;&quot;&gt;&quot;nhap the loai:&quot;&lt;/span&gt;);&lt;/div&gt;&lt;div&gt;&amp;nbsp; &amp;nbsp; &lt;span style=&quot;color: #dcdcaa;&quot;&gt;getchar&lt;/span&gt;();&lt;/div&gt;&lt;div&gt;&amp;nbsp; &amp;nbsp; &lt;span style=&quot;color: #dcdcaa;&quot;&gt;gets&lt;/span&gt;(&lt;span style=&quot;color: #9cdcfe;&quot;&gt;temp&lt;/span&gt;-&amp;gt;&lt;span style=&quot;color: #9cdcfe;&quot;&gt;category&lt;/span&gt;);&lt;/div&gt;&lt;/div&gt;&lt;/div&gt;" style="rhombus;whiteSpace=wrap;html=1;" parent="WIyWlLk6GJQsqaUBKTNV-1" vertex="1">
          <mxGeometry x="700" y="-30" width="760" height="140" as="geometry" />
        </mxCell>
        <mxCell id="jaS103z9ZxJK8VQjzJih-19" style="edgeStyle=orthogonalEdgeStyle;rounded=0;orthogonalLoop=1;jettySize=auto;html=1;" parent="WIyWlLk6GJQsqaUBKTNV-1" source="jaS103z9ZxJK8VQjzJih-20" target="jaS103z9ZxJK8VQjzJih-21" edge="1">
          <mxGeometry relative="1" as="geometry" />
        </mxCell>
        <mxCell id="jaS103z9ZxJK8VQjzJih-20" value="output (book *temp)" style="rounded=0;whiteSpace=wrap;html=1;shape=label;fixedSize=1;" parent="WIyWlLk6GJQsqaUBKTNV-1" vertex="1">
          <mxGeometry x="280" y="220" width="270" height="60" as="geometry" />
        </mxCell>
        <mxCell id="jaS103z9ZxJK8VQjzJih-21" value="&lt;div style=&quot;color: rgb(204, 204, 204); background-color: rgb(31, 31, 31); font-family: Consolas, &amp;quot;Courier New&amp;quot;, monospace; font-size: 14px; line-height: 19px;&quot;&gt;&lt;div style=&quot;line-height: 19px;&quot;&gt;printf(&lt;span style=&quot;color: #ce9178;&quot;&gt;&quot;ma sach:&lt;/span&gt;&lt;span style=&quot;color: #9cdcfe;&quot;&gt;%d&lt;/span&gt;&lt;span style=&quot;color: #ce9178;&quot;&gt;, ten sach:&lt;/span&gt;&lt;span style=&quot;color: #9cdcfe;&quot;&gt;%s&lt;/span&gt;&lt;span style=&quot;color: #ce9178;&quot;&gt;, tac gia:&lt;/span&gt;&lt;span style=&quot;color: #9cdcfe;&quot;&gt;%s&lt;/span&gt;&lt;span style=&quot;color: #ce9178;&quot;&gt;, gia tien:&lt;/span&gt;&lt;span style=&quot;color: #9cdcfe;&quot;&gt;%d&lt;/span&gt;&lt;span style=&quot;color: #ce9178;&quot;&gt;, the loai:&lt;/span&gt;&lt;span style=&quot;color: #9cdcfe;&quot;&gt;%s&lt;/span&gt;&lt;span style=&quot;color: #d7ba7d;&quot;&gt;\n&lt;/span&gt;&lt;span style=&quot;color: #ce9178;&quot;&gt;&quot;&lt;/span&gt;,&lt;span style=&quot;color: #9cdcfe;&quot;&gt;temp&lt;/span&gt;-&amp;gt;&lt;span style=&quot;color: #9cdcfe;&quot;&gt;book_id&lt;/span&gt;, &lt;span style=&quot;color: #9cdcfe;&quot;&gt;temp&lt;/span&gt;-&amp;gt;&lt;span style=&quot;color: #9cdcfe;&quot;&gt;book_name&lt;/span&gt;, &lt;span style=&quot;color: #9cdcfe;&quot;&gt;temp&lt;/span&gt;-&amp;gt;&lt;span style=&quot;color: #9cdcfe;&quot;&gt;author&lt;/span&gt;, &lt;span style=&quot;color: #9cdcfe;&quot;&gt;temp&lt;/span&gt;-&amp;gt;&lt;span style=&quot;color: #9cdcfe;&quot;&gt;price&lt;/span&gt;, &lt;span style=&quot;color: #9cdcfe;&quot;&gt;temp&lt;/span&gt;-&amp;gt;&lt;span style=&quot;color: #9cdcfe;&quot;&gt;category&lt;/span&gt;);&lt;/div&gt;&lt;/div&gt;" style="rhombus;whiteSpace=wrap;html=1;" parent="WIyWlLk6GJQsqaUBKTNV-1" vertex="1">
          <mxGeometry x="690" y="260" width="1600" height="140" as="geometry" />
        </mxCell>
        <mxCell id="jaS103z9ZxJK8VQjzJih-26" value="" style="edgeStyle=orthogonalEdgeStyle;rounded=0;orthogonalLoop=1;jettySize=auto;html=1;" parent="WIyWlLk6GJQsqaUBKTNV-1" source="jaS103z9ZxJK8VQjzJih-23" target="jaS103z9ZxJK8VQjzJih-25" edge="1">
          <mxGeometry relative="1" as="geometry" />
        </mxCell>
        <mxCell id="jaS103z9ZxJK8VQjzJih-23" value="&amp;nbsp;choice" style="rounded=0;whiteSpace=wrap;html=1;" parent="WIyWlLk6GJQsqaUBKTNV-1" vertex="1">
          <mxGeometry x="30" y="610" width="120" height="60" as="geometry" />
        </mxCell>
        <mxCell id="jaS103z9ZxJK8VQjzJih-28" style="edgeStyle=orthogonalEdgeStyle;rounded=0;orthogonalLoop=1;jettySize=auto;html=1;" parent="WIyWlLk6GJQsqaUBKTNV-1" source="jaS103z9ZxJK8VQjzJih-25" target="jaS103z9ZxJK8VQjzJih-27" edge="1">
          <mxGeometry relative="1" as="geometry" />
        </mxCell>
        <mxCell id="jaS103z9ZxJK8VQjzJih-32" value="" style="edgeStyle=orthogonalEdgeStyle;rounded=0;orthogonalLoop=1;jettySize=auto;html=1;" parent="WIyWlLk6GJQsqaUBKTNV-1" source="jaS103z9ZxJK8VQjzJih-25" target="jaS103z9ZxJK8VQjzJih-30" edge="1">
          <mxGeometry relative="1" as="geometry" />
        </mxCell>
        <mxCell id="jaS103z9ZxJK8VQjzJih-25" value="choice==1" style="rhombus;whiteSpace=wrap;html=1;" parent="WIyWlLk6GJQsqaUBKTNV-1" vertex="1">
          <mxGeometry x="50" y="720" width="80" height="80" as="geometry" />
        </mxCell>
        <mxCell id="jaS103z9ZxJK8VQjzJih-29" style="edgeStyle=orthogonalEdgeStyle;rounded=0;orthogonalLoop=1;jettySize=auto;html=1;" parent="WIyWlLk6GJQsqaUBKTNV-1" source="jaS103z9ZxJK8VQjzJih-27" edge="1">
          <mxGeometry relative="1" as="geometry">
            <mxPoint x="90" y="580" as="targetPoint" />
            <Array as="points">
              <mxPoint x="680" y="760" />
              <mxPoint x="680" y="580" />
            </Array>
          </mxGeometry>
        </mxCell>
        <mxCell id="jaS103z9ZxJK8VQjzJih-27" value="&lt;div style=&quot;color: rgb(204, 204, 204); background-color: rgb(31, 31, 31); font-family: Consolas, &amp;quot;Courier New&amp;quot;, monospace; font-size: 14px; line-height: 19px;&quot;&gt;&lt;div style=&quot;line-height: 19px;&quot;&gt;&lt;div&gt;printf(&lt;span style=&quot;color: #ce9178;&quot;&gt;&quot;nhap vao so luong sach:&quot;&lt;/span&gt;);&lt;/div&gt;&lt;div&gt;&amp;nbsp; &amp;nbsp; &amp;nbsp; &amp;nbsp; &amp;nbsp; &amp;nbsp; &amp;nbsp; &amp;nbsp; &lt;span style=&quot;color: #dcdcaa;&quot;&gt;scanf&lt;/span&gt;(&lt;span style=&quot;color: #ce9178;&quot;&gt;&quot;&lt;/span&gt;&lt;span style=&quot;color: #9cdcfe;&quot;&gt;%d&lt;/span&gt;&lt;span style=&quot;color: #ce9178;&quot;&gt;&quot;&lt;/span&gt;,&lt;span style=&quot;color: #d4d4d4;&quot;&gt;&amp;amp;&lt;/span&gt;&lt;span style=&quot;color: #9cdcfe;&quot;&gt;n&lt;/span&gt;);&lt;/div&gt;&lt;div&gt;&amp;nbsp; &amp;nbsp; &amp;nbsp; &amp;nbsp; &amp;nbsp; &amp;nbsp; &amp;nbsp; &amp;nbsp; &lt;span style=&quot;color: #c586c0;&quot;&gt;for&lt;/span&gt; (&lt;span style=&quot;color: #569cd6;&quot;&gt;int&lt;/span&gt; &lt;span style=&quot;color: #9cdcfe;&quot;&gt;i&lt;/span&gt;&lt;span style=&quot;color: #d4d4d4;&quot;&gt;=&lt;/span&gt;&lt;span style=&quot;color: #b5cea8;&quot;&gt;0&lt;/span&gt;;&lt;span style=&quot;color: #9cdcfe;&quot;&gt;i&lt;/span&gt;&lt;span style=&quot;color: #d4d4d4;&quot;&gt;&amp;lt;&lt;/span&gt;&lt;span style=&quot;color: #9cdcfe;&quot;&gt;n&lt;/span&gt;;&lt;span style=&quot;color: #9cdcfe;&quot;&gt;i&lt;/span&gt;&lt;span style=&quot;color: #d4d4d4;&quot;&gt;++&lt;/span&gt;)&lt;/div&gt;&lt;div&gt;&amp;nbsp; &amp;nbsp; &amp;nbsp; &amp;nbsp; &amp;nbsp; &amp;nbsp; &amp;nbsp; &amp;nbsp; &amp;nbsp; &amp;nbsp; &lt;span style=&quot;color: #dcdcaa;&quot;&gt;input&lt;/span&gt;(&lt;span style=&quot;color: #d4d4d4;&quot;&gt;&amp;amp;&lt;/span&gt;&lt;span style=&quot;color: #9cdcfe;&quot;&gt;temp&lt;/span&gt;[&lt;span style=&quot;color: #9cdcfe;&quot;&gt;i&lt;/span&gt;]);&lt;/div&gt;&lt;div&gt;&amp;nbsp; &amp;nbsp; &amp;nbsp; &amp;nbsp; &amp;nbsp; &amp;nbsp; &amp;nbsp; &amp;nbsp; &lt;span style=&quot;color: #9cdcfe;&quot;&gt;index&lt;/span&gt; &lt;span style=&quot;color: #d4d4d4;&quot;&gt;=&lt;/span&gt; &lt;span style=&quot;color: #9cdcfe;&quot;&gt;n&lt;/span&gt;;&lt;/div&gt;&lt;/div&gt;&lt;/div&gt;" style="rounded=0;whiteSpace=wrap;html=1;" parent="WIyWlLk6GJQsqaUBKTNV-1" vertex="1">
          <mxGeometry x="220" y="730" width="390" height="60" as="geometry" />
        </mxCell>
        <mxCell id="jaS103z9ZxJK8VQjzJih-35" style="edgeStyle=orthogonalEdgeStyle;rounded=0;orthogonalLoop=1;jettySize=auto;html=1;entryX=0;entryY=0.5;entryDx=0;entryDy=0;" parent="WIyWlLk6GJQsqaUBKTNV-1" source="jaS103z9ZxJK8VQjzJih-30" target="jaS103z9ZxJK8VQjzJih-34" edge="1">
          <mxGeometry relative="1" as="geometry" />
        </mxCell>
        <mxCell id="jaS103z9ZxJK8VQjzJih-37" value="true" style="edgeLabel;html=1;align=center;verticalAlign=middle;resizable=0;points=[];" parent="jaS103z9ZxJK8VQjzJih-35" vertex="1" connectable="0">
          <mxGeometry x="-0.15" y="-2" relative="1" as="geometry">
            <mxPoint as="offset" />
          </mxGeometry>
        </mxCell>
        <mxCell id="jaS103z9ZxJK8VQjzJih-39" value="" style="edgeStyle=orthogonalEdgeStyle;rounded=0;orthogonalLoop=1;jettySize=auto;html=1;" parent="WIyWlLk6GJQsqaUBKTNV-1" source="jaS103z9ZxJK8VQjzJih-30" target="jaS103z9ZxJK8VQjzJih-38" edge="1">
          <mxGeometry relative="1" as="geometry" />
        </mxCell>
        <mxCell id="jaS103z9ZxJK8VQjzJih-30" value="choice==2" style="rhombus;whiteSpace=wrap;html=1;" parent="WIyWlLk6GJQsqaUBKTNV-1" vertex="1">
          <mxGeometry x="50" y="880" width="80" height="80" as="geometry" />
        </mxCell>
        <mxCell id="jaS103z9ZxJK8VQjzJih-36" style="edgeStyle=orthogonalEdgeStyle;rounded=0;orthogonalLoop=1;jettySize=auto;html=1;" parent="WIyWlLk6GJQsqaUBKTNV-1" source="jaS103z9ZxJK8VQjzJih-34" edge="1">
          <mxGeometry relative="1" as="geometry">
            <mxPoint x="90" y="580" as="targetPoint" />
            <Array as="points">
              <mxPoint x="680" y="920" />
              <mxPoint x="680" y="580" />
            </Array>
          </mxGeometry>
        </mxCell>
        <mxCell id="jaS103z9ZxJK8VQjzJih-34" value="&lt;div style=&quot;color: rgb(204, 204, 204); background-color: rgb(31, 31, 31); font-family: Consolas, &amp;quot;Courier New&amp;quot;, monospace; font-size: 14px; line-height: 19px;&quot;&gt;&lt;div style=&quot;line-height: 19px;&quot;&gt;&lt;div&gt;for (&lt;span style=&quot;color: #9cdcfe;&quot;&gt;i&lt;/span&gt;&lt;span style=&quot;color: #d4d4d4;&quot;&gt;=&lt;/span&gt;&lt;span style=&quot;color: #b5cea8;&quot;&gt;0&lt;/span&gt;;&lt;span style=&quot;color: #9cdcfe;&quot;&gt;i&lt;/span&gt;&lt;span style=&quot;color: #d4d4d4;&quot;&gt;&amp;lt;&lt;/span&gt;&lt;span style=&quot;color: #9cdcfe;&quot;&gt;index&lt;/span&gt;;&lt;span style=&quot;color: #9cdcfe;&quot;&gt;i&lt;/span&gt;&lt;span style=&quot;color: #d4d4d4;&quot;&gt;++&lt;/span&gt;) {&lt;/div&gt;&lt;div&gt;&amp;nbsp; &amp;nbsp; &amp;nbsp; &amp;nbsp; &amp;nbsp; &amp;nbsp; &amp;nbsp; &amp;nbsp; &amp;nbsp; &amp;nbsp; &lt;span style=&quot;color: #dcdcaa;&quot;&gt;printf&lt;/span&gt;(&lt;span style=&quot;color: #ce9178;&quot;&gt;&quot;&lt;/span&gt;&lt;span style=&quot;color: #9cdcfe;&quot;&gt;%d&lt;/span&gt;&lt;span style=&quot;color: #ce9178;&quot;&gt;:&quot;&lt;/span&gt;,&lt;span style=&quot;color: #9cdcfe;&quot;&gt;i&lt;/span&gt;&lt;span style=&quot;color: #d4d4d4;&quot;&gt;+&lt;/span&gt;&lt;span style=&quot;color: #b5cea8;&quot;&gt;1&lt;/span&gt;);&lt;/div&gt;&lt;div&gt;&amp;nbsp; &amp;nbsp; &amp;nbsp; &amp;nbsp; &amp;nbsp; &amp;nbsp; &amp;nbsp; &amp;nbsp; &amp;nbsp; &amp;nbsp; &lt;span style=&quot;color: #dcdcaa;&quot;&gt;output&lt;/span&gt;(&lt;span style=&quot;color: #d4d4d4;&quot;&gt;&amp;amp;&lt;/span&gt;&lt;span style=&quot;color: #9cdcfe;&quot;&gt;temp&lt;/span&gt;[&lt;span style=&quot;color: #9cdcfe;&quot;&gt;i&lt;/span&gt;]);&lt;/div&gt;&lt;div&gt;&amp;nbsp; &amp;nbsp; &amp;nbsp; &amp;nbsp; &amp;nbsp; &amp;nbsp; &amp;nbsp; &amp;nbsp; }&lt;/div&gt;&lt;/div&gt;&lt;/div&gt;" style="rounded=0;whiteSpace=wrap;html=1;" parent="WIyWlLk6GJQsqaUBKTNV-1" vertex="1">
          <mxGeometry x="230" y="890" width="550" height="60" as="geometry" />
        </mxCell>
        <mxCell id="jaS103z9ZxJK8VQjzJih-41" value="" style="edgeStyle=orthogonalEdgeStyle;rounded=0;orthogonalLoop=1;jettySize=auto;html=1;entryX=0;entryY=0.5;entryDx=0;entryDy=0;" parent="WIyWlLk6GJQsqaUBKTNV-1" source="jaS103z9ZxJK8VQjzJih-38" target="jaS103z9ZxJK8VQjzJih-44" edge="1">
          <mxGeometry relative="1" as="geometry">
            <mxPoint x="230" y="1080" as="targetPoint" />
          </mxGeometry>
        </mxCell>
        <mxCell id="jaS103z9ZxJK8VQjzJih-53" style="edgeStyle=orthogonalEdgeStyle;rounded=0;orthogonalLoop=1;jettySize=auto;html=1;" parent="WIyWlLk6GJQsqaUBKTNV-1" source="jaS103z9ZxJK8VQjzJih-38" target="jaS103z9ZxJK8VQjzJih-52" edge="1">
          <mxGeometry relative="1" as="geometry" />
        </mxCell>
        <mxCell id="jaS103z9ZxJK8VQjzJih-38" value="choice==3" style="rhombus;whiteSpace=wrap;html=1;" parent="WIyWlLk6GJQsqaUBKTNV-1" vertex="1">
          <mxGeometry x="50" y="1040" width="80" height="80" as="geometry" />
        </mxCell>
        <mxCell id="jaS103z9ZxJK8VQjzJih-43" value="" style="edgeStyle=orthogonalEdgeStyle;rounded=0;orthogonalLoop=1;jettySize=auto;html=1;" parent="WIyWlLk6GJQsqaUBKTNV-1" edge="1">
          <mxGeometry relative="1" as="geometry">
            <mxPoint x="350" y="1080" as="sourcePoint" />
            <mxPoint x="450" y="1080" as="targetPoint" />
          </mxGeometry>
        </mxCell>
        <mxCell id="jaS103z9ZxJK8VQjzJih-51" style="edgeStyle=orthogonalEdgeStyle;rounded=0;orthogonalLoop=1;jettySize=auto;html=1;" parent="WIyWlLk6GJQsqaUBKTNV-1" source="jaS103z9ZxJK8VQjzJih-44" edge="1">
          <mxGeometry relative="1" as="geometry">
            <mxPoint x="90" y="580" as="targetPoint" />
            <Array as="points">
              <mxPoint x="680" y="1199" />
              <mxPoint x="680" y="580" />
            </Array>
          </mxGeometry>
        </mxCell>
        <mxCell id="jaS103z9ZxJK8VQjzJih-44" value="&lt;div style=&quot;color: rgb(204, 204, 204); background-color: rgb(31, 31, 31); font-family: Consolas, &amp;quot;Courier New&amp;quot;, monospace; font-size: 14px; line-height: 19px;&quot;&gt;&lt;div style=&quot;line-height: 19px;&quot;&gt;&lt;div&gt;int &lt;span style=&quot;color: #9cdcfe;&quot;&gt;add_index&lt;/span&gt;;&lt;/div&gt;&lt;div&gt;&amp;nbsp; &amp;nbsp; &amp;nbsp; &amp;nbsp; &amp;nbsp; &amp;nbsp; &amp;nbsp; &amp;nbsp; &lt;span style=&quot;color: #dcdcaa;&quot;&gt;printf&lt;/span&gt;(&lt;span style=&quot;color: #ce9178;&quot;&gt;&quot;nhap vi tri can chen thong tin:&quot;&lt;/span&gt;);&lt;/div&gt;&lt;div&gt;&amp;nbsp; &amp;nbsp; &amp;nbsp; &amp;nbsp; &amp;nbsp; &amp;nbsp; &amp;nbsp; &amp;nbsp; &lt;span style=&quot;color: #dcdcaa;&quot;&gt;scanf&lt;/span&gt;(&lt;span style=&quot;color: #ce9178;&quot;&gt;&quot;&lt;/span&gt;&lt;span style=&quot;color: #9cdcfe;&quot;&gt;%d&lt;/span&gt;&lt;span style=&quot;color: #ce9178;&quot;&gt;&quot;&lt;/span&gt;,&lt;span style=&quot;color: #d4d4d4;&quot;&gt;&amp;amp;&lt;/span&gt;&lt;span style=&quot;color: #9cdcfe;&quot;&gt;add_index&lt;/span&gt;);&lt;/div&gt;&lt;div&gt;&amp;nbsp; &amp;nbsp; &amp;nbsp; &amp;nbsp; &amp;nbsp; &amp;nbsp; &amp;nbsp; &amp;nbsp; &lt;span style=&quot;color: #c586c0;&quot;&gt;for&lt;/span&gt; (&lt;span style=&quot;color: #9cdcfe;&quot;&gt;i&lt;/span&gt;&lt;span style=&quot;color: #d4d4d4;&quot;&gt;=&lt;/span&gt;&lt;span style=&quot;color: #9cdcfe;&quot;&gt;index&lt;/span&gt;;&lt;span style=&quot;color: #9cdcfe;&quot;&gt;i&lt;/span&gt;&lt;span style=&quot;color: #d4d4d4;&quot;&gt;&amp;gt;=&lt;/span&gt;&lt;span style=&quot;color: #9cdcfe;&quot;&gt;add_index&lt;/span&gt;;&lt;span style=&quot;color: #9cdcfe;&quot;&gt;i&lt;/span&gt;&lt;span style=&quot;color: #d4d4d4;&quot;&gt;--&lt;/span&gt;){&lt;/div&gt;&lt;div&gt;&amp;nbsp; &amp;nbsp; &amp;nbsp; &amp;nbsp; &amp;nbsp; &amp;nbsp; &amp;nbsp; &amp;nbsp; &amp;nbsp; &amp;nbsp; &lt;span style=&quot;color: #9cdcfe;&quot;&gt;temp&lt;/span&gt;[&lt;span style=&quot;color: #9cdcfe;&quot;&gt;i&lt;/span&gt;] &lt;span style=&quot;color: #d4d4d4;&quot;&gt;=&lt;/span&gt; &lt;span style=&quot;color: #9cdcfe;&quot;&gt;temp&lt;/span&gt;[&lt;span style=&quot;color: #9cdcfe;&quot;&gt;i&lt;/span&gt;&lt;span style=&quot;color: #d4d4d4;&quot;&gt;-&lt;/span&gt;&lt;span style=&quot;color: #b5cea8;&quot;&gt;1&lt;/span&gt;];&lt;/div&gt;&lt;div&gt;&amp;nbsp; &amp;nbsp; &amp;nbsp; &amp;nbsp; &amp;nbsp; &amp;nbsp; &amp;nbsp; &amp;nbsp; &amp;nbsp; &amp;nbsp; &lt;span style=&quot;color: #c586c0;&quot;&gt;if&lt;/span&gt; (&lt;span style=&quot;color: #9cdcfe;&quot;&gt;i&lt;/span&gt; &lt;span style=&quot;color: #d4d4d4;&quot;&gt;==&lt;/span&gt; &lt;span style=&quot;color: #9cdcfe;&quot;&gt;add_index&lt;/span&gt;)&lt;/div&gt;&lt;div&gt;&amp;nbsp; &amp;nbsp; &amp;nbsp; &amp;nbsp; &amp;nbsp; &amp;nbsp; &amp;nbsp; &amp;nbsp; &amp;nbsp; &amp;nbsp; &amp;nbsp; &amp;nbsp; &lt;span style=&quot;color: #dcdcaa;&quot;&gt;input&lt;/span&gt;(&lt;span style=&quot;color: #d4d4d4;&quot;&gt;&amp;amp;&lt;/span&gt;&lt;span style=&quot;color: #9cdcfe;&quot;&gt;temp&lt;/span&gt;[&lt;span style=&quot;color: #9cdcfe;&quot;&gt;i&lt;/span&gt;]);&lt;/div&gt;&lt;div&gt;&amp;nbsp; &amp;nbsp; &amp;nbsp; &amp;nbsp; &amp;nbsp; &amp;nbsp; &amp;nbsp; &amp;nbsp; }&lt;/div&gt;&lt;div&gt;&amp;nbsp; &amp;nbsp; &amp;nbsp; &amp;nbsp; &amp;nbsp; &amp;nbsp; &amp;nbsp; &amp;nbsp; &lt;span style=&quot;color: #9cdcfe;&quot;&gt;index&lt;/span&gt;&lt;span style=&quot;color: #d4d4d4;&quot;&gt;++&lt;/span&gt;;&lt;/div&gt;&lt;/div&gt;&lt;/div&gt;" style="rounded=0;whiteSpace=wrap;html=1;" parent="WIyWlLk6GJQsqaUBKTNV-1" vertex="1">
          <mxGeometry x="240" y="1050" width="480" height="60" as="geometry" />
        </mxCell>
        <mxCell id="jaS103z9ZxJK8VQjzJih-50" style="edgeStyle=orthogonalEdgeStyle;rounded=0;orthogonalLoop=1;jettySize=auto;html=1;exitX=1;exitY=0.5;exitDx=0;exitDy=0;" parent="WIyWlLk6GJQsqaUBKTNV-1" edge="1">
          <mxGeometry relative="1" as="geometry">
            <mxPoint x="90" y="580" as="targetPoint" />
            <Array as="points">
              <mxPoint x="680" y="1080" />
              <mxPoint x="680" y="580" />
            </Array>
            <mxPoint x="650" y="1080" as="sourcePoint" />
          </mxGeometry>
        </mxCell>
        <mxCell id="jaS103z9ZxJK8VQjzJih-55" value="" style="edgeStyle=orthogonalEdgeStyle;rounded=0;orthogonalLoop=1;jettySize=auto;html=1;entryX=0;entryY=0.5;entryDx=0;entryDy=0;" parent="WIyWlLk6GJQsqaUBKTNV-1" source="jaS103z9ZxJK8VQjzJih-52" target="HDL38AltIUm5IQfEKSuB-2" edge="1">
          <mxGeometry relative="1" as="geometry">
            <mxPoint x="180" y="1410" as="targetPoint" />
          </mxGeometry>
        </mxCell>
        <mxCell id="jaS103z9ZxJK8VQjzJih-74" style="edgeStyle=orthogonalEdgeStyle;rounded=0;orthogonalLoop=1;jettySize=auto;html=1;" parent="WIyWlLk6GJQsqaUBKTNV-1" source="jaS103z9ZxJK8VQjzJih-52" target="jaS103z9ZxJK8VQjzJih-73" edge="1">
          <mxGeometry relative="1" as="geometry" />
        </mxCell>
        <mxCell id="jaS103z9ZxJK8VQjzJih-52" value="choice==4" style="rhombus;whiteSpace=wrap;html=1;" parent="WIyWlLk6GJQsqaUBKTNV-1" vertex="1">
          <mxGeometry x="50" y="1240" width="80" height="80" as="geometry" />
        </mxCell>
        <mxCell id="jaS103z9ZxJK8VQjzJih-61" style="edgeStyle=orthogonalEdgeStyle;rounded=0;orthogonalLoop=1;jettySize=auto;html=1;" parent="WIyWlLk6GJQsqaUBKTNV-1" edge="1">
          <mxGeometry relative="1" as="geometry">
            <mxPoint x="90" y="580" as="targetPoint" />
            <Array as="points">
              <mxPoint x="680" y="1410" />
              <mxPoint x="680" y="580" />
            </Array>
            <mxPoint x="635" y="1410" as="sourcePoint" />
          </mxGeometry>
        </mxCell>
        <mxCell id="jaS103z9ZxJK8VQjzJih-72" style="edgeStyle=orthogonalEdgeStyle;rounded=0;orthogonalLoop=1;jettySize=auto;html=1;exitX=1;exitY=0;exitDx=0;exitDy=0;" parent="WIyWlLk6GJQsqaUBKTNV-1" source="HDL38AltIUm5IQfEKSuB-4" edge="1">
          <mxGeometry relative="1" as="geometry">
            <mxPoint x="90" y="585" as="targetPoint" />
            <mxPoint x="500" y="1754" as="sourcePoint" />
            <Array as="points">
              <mxPoint x="690" y="1530" />
              <mxPoint x="910" y="1530" />
              <mxPoint x="910" y="580" />
              <mxPoint x="90" y="580" />
            </Array>
          </mxGeometry>
        </mxCell>
        <mxCell id="jaS103z9ZxJK8VQjzJih-77" value="" style="edgeStyle=orthogonalEdgeStyle;rounded=0;orthogonalLoop=1;jettySize=auto;html=1;entryX=0;entryY=0.5;entryDx=0;entryDy=0;" parent="WIyWlLk6GJQsqaUBKTNV-1" source="jaS103z9ZxJK8VQjzJih-73" edge="1" target="HDL38AltIUm5IQfEKSuB-4">
          <mxGeometry relative="1" as="geometry">
            <mxPoint x="230" y="1910" as="targetPoint" />
          </mxGeometry>
        </mxCell>
        <mxCell id="jaS103z9ZxJK8VQjzJih-88" style="edgeStyle=orthogonalEdgeStyle;rounded=0;orthogonalLoop=1;jettySize=auto;html=1;" parent="WIyWlLk6GJQsqaUBKTNV-1" source="jaS103z9ZxJK8VQjzJih-73" target="jaS103z9ZxJK8VQjzJih-86" edge="1">
          <mxGeometry relative="1" as="geometry" />
        </mxCell>
        <mxCell id="jaS103z9ZxJK8VQjzJih-73" value="choice==5" style="rhombus;whiteSpace=wrap;html=1;" parent="WIyWlLk6GJQsqaUBKTNV-1" vertex="1">
          <mxGeometry x="50" y="1460" width="80" height="80" as="geometry" />
        </mxCell>
        <mxCell id="jaS103z9ZxJK8VQjzJih-90" value="" style="edgeStyle=orthogonalEdgeStyle;rounded=0;orthogonalLoop=1;jettySize=auto;html=1;" parent="WIyWlLk6GJQsqaUBKTNV-1" source="jaS103z9ZxJK8VQjzJih-86" target="jaS103z9ZxJK8VQjzJih-89" edge="1">
          <mxGeometry relative="1" as="geometry" />
        </mxCell>
        <mxCell id="jaS103z9ZxJK8VQjzJih-94" style="edgeStyle=orthogonalEdgeStyle;rounded=0;orthogonalLoop=1;jettySize=auto;html=1;" parent="WIyWlLk6GJQsqaUBKTNV-1" source="jaS103z9ZxJK8VQjzJih-86" target="jaS103z9ZxJK8VQjzJih-93" edge="1">
          <mxGeometry relative="1" as="geometry" />
        </mxCell>
        <mxCell id="jaS103z9ZxJK8VQjzJih-86" value="choice==9" style="rhombus;whiteSpace=wrap;html=1;" parent="WIyWlLk6GJQsqaUBKTNV-1" vertex="1">
          <mxGeometry x="50" y="2440" width="80" height="80" as="geometry" />
        </mxCell>
        <mxCell id="jaS103z9ZxJK8VQjzJih-92" style="edgeStyle=orthogonalEdgeStyle;rounded=0;orthogonalLoop=1;jettySize=auto;html=1;entryX=0;entryY=0.5;entryDx=0;entryDy=0;" parent="WIyWlLk6GJQsqaUBKTNV-1" source="jaS103z9ZxJK8VQjzJih-89" target="jaS103z9ZxJK8VQjzJih-91" edge="1">
          <mxGeometry relative="1" as="geometry" />
        </mxCell>
        <mxCell id="jaS103z9ZxJK8VQjzJih-89" value="thoat" style="shape=parallelogram;perimeter=parallelogramPerimeter;whiteSpace=wrap;html=1;fixedSize=1;" parent="WIyWlLk6GJQsqaUBKTNV-1" vertex="1">
          <mxGeometry x="200" y="2450" width="120" height="50" as="geometry" />
        </mxCell>
        <mxCell id="jaS103z9ZxJK8VQjzJih-91" value="end" style="ellipse;whiteSpace=wrap;html=1;" parent="WIyWlLk6GJQsqaUBKTNV-1" vertex="1">
          <mxGeometry x="440" y="2540" width="120" height="80" as="geometry" />
        </mxCell>
        <mxCell id="jaS103z9ZxJK8VQjzJih-95" style="edgeStyle=orthogonalEdgeStyle;rounded=0;orthogonalLoop=1;jettySize=auto;html=1;exitX=0;exitY=0.5;exitDx=0;exitDy=0;" parent="WIyWlLk6GJQsqaUBKTNV-1" source="jaS103z9ZxJK8VQjzJih-93" edge="1">
          <mxGeometry relative="1" as="geometry">
            <mxPoint x="90" y="580" as="targetPoint" />
            <Array as="points">
              <mxPoint x="10" y="2200" />
              <mxPoint x="10" y="580" />
            </Array>
          </mxGeometry>
        </mxCell>
        <mxCell id="jaS103z9ZxJK8VQjzJih-93" value="nhap lai" style="shape=parallelogram;perimeter=parallelogramPerimeter;whiteSpace=wrap;html=1;fixedSize=1;" parent="WIyWlLk6GJQsqaUBKTNV-1" vertex="1">
          <mxGeometry x="30" y="2590" width="120" height="60" as="geometry" />
        </mxCell>
        <mxCell id="HDL38AltIUm5IQfEKSuB-0" value="typedef struct Books book;" style="rounded=0;whiteSpace=wrap;html=1;" parent="WIyWlLk6GJQsqaUBKTNV-1" vertex="1">
          <mxGeometry x="780" y="-150" width="120" height="60" as="geometry" />
        </mxCell>
        <mxCell id="HDL38AltIUm5IQfEKSuB-3" style="edgeStyle=orthogonalEdgeStyle;rounded=0;orthogonalLoop=1;jettySize=auto;html=1;" parent="WIyWlLk6GJQsqaUBKTNV-1" source="HDL38AltIUm5IQfEKSuB-2" edge="1">
          <mxGeometry relative="1" as="geometry">
            <mxPoint x="660" y="1410" as="targetPoint" />
          </mxGeometry>
        </mxCell>
        <mxCell id="HDL38AltIUm5IQfEKSuB-2" value="&lt;div style=&quot;color: rgb(204, 204, 204); background-color: rgb(31, 31, 31); font-family: Consolas, &amp;quot;Courier New&amp;quot;, monospace; font-size: 14px; line-height: 19px;&quot;&gt;&lt;div style=&quot;line-height: 19px;&quot;&gt;&lt;div&gt;int &lt;span style=&quot;color: #9cdcfe;&quot;&gt;delete_id&lt;/span&gt;;&lt;/div&gt;&lt;div&gt;&amp;nbsp; &amp;nbsp; &amp;nbsp; &amp;nbsp; &amp;nbsp; &amp;nbsp; &amp;nbsp; &amp;nbsp; &lt;span style=&quot;color: #dcdcaa;&quot;&gt;printf&lt;/span&gt;(&lt;span style=&quot;color: #ce9178;&quot;&gt;&quot;nhap vao id can xoa:&quot;&lt;/span&gt;);&lt;/div&gt;&lt;div&gt;&amp;nbsp; &amp;nbsp; &amp;nbsp; &amp;nbsp; &amp;nbsp; &amp;nbsp; &amp;nbsp; &amp;nbsp; &lt;span style=&quot;color: #dcdcaa;&quot;&gt;scanf&lt;/span&gt;(&lt;span style=&quot;color: #ce9178;&quot;&gt;&quot;&lt;/span&gt;&lt;span style=&quot;color: #9cdcfe;&quot;&gt;%d&lt;/span&gt;&lt;span style=&quot;color: #ce9178;&quot;&gt;&quot;&lt;/span&gt;,&lt;span style=&quot;color: #d4d4d4;&quot;&gt;&amp;amp;&lt;/span&gt;&lt;span style=&quot;color: #9cdcfe;&quot;&gt;delete_id&lt;/span&gt;);&lt;/div&gt;&lt;div&gt;&amp;nbsp; &amp;nbsp; &amp;nbsp; &amp;nbsp; &amp;nbsp; &amp;nbsp; &amp;nbsp; &amp;nbsp; &lt;span style=&quot;color: #c586c0;&quot;&gt;for&lt;/span&gt; (&lt;span style=&quot;color: #9cdcfe;&quot;&gt;i&lt;/span&gt;&lt;span style=&quot;color: #d4d4d4;&quot;&gt;=&lt;/span&gt;&lt;span style=&quot;color: #b5cea8;&quot;&gt;0&lt;/span&gt;;&lt;span style=&quot;color: #9cdcfe;&quot;&gt;i&lt;/span&gt;&lt;span style=&quot;color: #d4d4d4;&quot;&gt;&amp;lt;&lt;/span&gt;&lt;span style=&quot;color: #9cdcfe;&quot;&gt;index&lt;/span&gt;;&lt;span style=&quot;color: #9cdcfe;&quot;&gt;i&lt;/span&gt;&lt;span style=&quot;color: #d4d4d4;&quot;&gt;++&lt;/span&gt;) {&lt;/div&gt;&lt;div&gt;&amp;nbsp; &amp;nbsp; &amp;nbsp; &amp;nbsp; &amp;nbsp; &amp;nbsp; &amp;nbsp; &amp;nbsp; &amp;nbsp; &amp;nbsp; &lt;span style=&quot;color: #c586c0;&quot;&gt;if&lt;/span&gt; (&lt;span style=&quot;color: #9cdcfe;&quot;&gt;temp&lt;/span&gt;[&lt;span style=&quot;color: #9cdcfe;&quot;&gt;i&lt;/span&gt;].&lt;span style=&quot;color: #9cdcfe;&quot;&gt;book_id&lt;/span&gt; &lt;span style=&quot;color: #d4d4d4;&quot;&gt;==&lt;/span&gt; &lt;span style=&quot;color: #9cdcfe;&quot;&gt;delete_id&lt;/span&gt;)&lt;/div&gt;&lt;div&gt;&amp;nbsp; &amp;nbsp; &amp;nbsp; &amp;nbsp; &amp;nbsp; &amp;nbsp; &amp;nbsp; &amp;nbsp; &amp;nbsp; &amp;nbsp; &lt;span style=&quot;color: #c586c0;&quot;&gt;for&lt;/span&gt; (&lt;span style=&quot;color: #569cd6;&quot;&gt;int&lt;/span&gt; &lt;span style=&quot;color: #9cdcfe;&quot;&gt;j&lt;/span&gt;&lt;span style=&quot;color: #d4d4d4;&quot;&gt;=&lt;/span&gt;&lt;span style=&quot;color: #9cdcfe;&quot;&gt;i&lt;/span&gt;;&lt;span style=&quot;color: #9cdcfe;&quot;&gt;j&lt;/span&gt;&lt;span style=&quot;color: #d4d4d4;&quot;&gt;&amp;lt;&lt;/span&gt;&lt;span style=&quot;color: #9cdcfe;&quot;&gt;index&lt;/span&gt;&lt;span style=&quot;color: #d4d4d4;&quot;&gt;-&lt;/span&gt;&lt;span style=&quot;color: #b5cea8;&quot;&gt;1&lt;/span&gt;;&lt;span style=&quot;color: #9cdcfe;&quot;&gt;j&lt;/span&gt;&lt;span style=&quot;color: #d4d4d4;&quot;&gt;++&lt;/span&gt;)&lt;/div&gt;&lt;div&gt;&amp;nbsp; &amp;nbsp; &amp;nbsp; &amp;nbsp; &amp;nbsp; &amp;nbsp; &amp;nbsp; &amp;nbsp; &amp;nbsp; &amp;nbsp; &lt;span style=&quot;color: #9cdcfe;&quot;&gt;temp&lt;/span&gt;[&lt;span style=&quot;color: #9cdcfe;&quot;&gt;i&lt;/span&gt;] &lt;span style=&quot;color: #d4d4d4;&quot;&gt;=&lt;/span&gt; &lt;span style=&quot;color: #9cdcfe;&quot;&gt;temp&lt;/span&gt; [&lt;span style=&quot;color: #9cdcfe;&quot;&gt;i&lt;/span&gt;&lt;span style=&quot;color: #d4d4d4;&quot;&gt;+&lt;/span&gt;&lt;span style=&quot;color: #b5cea8;&quot;&gt;1&lt;/span&gt;];&lt;/div&gt;&lt;div&gt;&amp;nbsp; &amp;nbsp; &amp;nbsp; &amp;nbsp; &amp;nbsp; &amp;nbsp; &amp;nbsp; &amp;nbsp; }&lt;/div&gt;&lt;div&gt;&amp;nbsp; &amp;nbsp; &amp;nbsp; &amp;nbsp; &amp;nbsp; &amp;nbsp; &amp;nbsp; &amp;nbsp; &lt;span style=&quot;color: #9cdcfe;&quot;&gt;index&lt;/span&gt;&lt;span style=&quot;color: #d4d4d4;&quot;&gt;--&lt;/span&gt;;&lt;/div&gt;&lt;/div&gt;&lt;/div&gt;" style="rounded=0;whiteSpace=wrap;html=1;" parent="WIyWlLk6GJQsqaUBKTNV-1" vertex="1">
          <mxGeometry x="170" y="1250" width="480" height="60" as="geometry" />
        </mxCell>
        <mxCell id="HDL38AltIUm5IQfEKSuB-4" value="&lt;div style=&quot;color: rgb(204, 204, 204); background-color: rgb(31, 31, 31); font-family: Consolas, &amp;quot;Courier New&amp;quot;, monospace; font-size: 14px; line-height: 19px;&quot;&gt;&lt;div style=&quot;line-height: 19px;&quot;&gt;&lt;div&gt;int &lt;span style=&quot;color: #9cdcfe;&quot;&gt;find_id&lt;/span&gt;;&lt;/div&gt;&lt;div&gt;&amp;nbsp; &amp;nbsp; &amp;nbsp; &amp;nbsp; &amp;nbsp; &amp;nbsp; &amp;nbsp; &amp;nbsp; &lt;span style=&quot;color: #dcdcaa;&quot;&gt;printf&lt;/span&gt;(&lt;span style=&quot;color: #ce9178;&quot;&gt;&quot;nhap vao id can cap nhat:&quot;&lt;/span&gt;);&lt;/div&gt;&lt;div&gt;&amp;nbsp; &amp;nbsp; &amp;nbsp; &amp;nbsp; &amp;nbsp; &amp;nbsp; &amp;nbsp; &amp;nbsp; &lt;span style=&quot;color: #dcdcaa;&quot;&gt;scanf&lt;/span&gt;(&lt;span style=&quot;color: #ce9178;&quot;&gt;&quot;&lt;/span&gt;&lt;span style=&quot;color: #9cdcfe;&quot;&gt;%d&lt;/span&gt;&lt;span style=&quot;color: #ce9178;&quot;&gt;&quot;&lt;/span&gt;,&lt;span style=&quot;color: #d4d4d4;&quot;&gt;&amp;amp;&lt;/span&gt;&lt;span style=&quot;color: #9cdcfe;&quot;&gt;find_id&lt;/span&gt;);&lt;/div&gt;&lt;div&gt;&amp;nbsp; &amp;nbsp; &amp;nbsp; &amp;nbsp; &amp;nbsp; &amp;nbsp; &amp;nbsp; &amp;nbsp; &lt;span style=&quot;color: #c586c0;&quot;&gt;for&lt;/span&gt; (&lt;span style=&quot;color: #9cdcfe;&quot;&gt;i&lt;/span&gt;&lt;span style=&quot;color: #d4d4d4;&quot;&gt;=&lt;/span&gt;&lt;span style=&quot;color: #b5cea8;&quot;&gt;0&lt;/span&gt;;&lt;span style=&quot;color: #9cdcfe;&quot;&gt;i&lt;/span&gt;&lt;span style=&quot;color: #d4d4d4;&quot;&gt;&amp;lt;&lt;/span&gt;&lt;span style=&quot;color: #9cdcfe;&quot;&gt;index&lt;/span&gt;;&lt;span style=&quot;color: #9cdcfe;&quot;&gt;i&lt;/span&gt;&lt;span style=&quot;color: #d4d4d4;&quot;&gt;++&lt;/span&gt;) {&lt;/div&gt;&lt;div&gt;&amp;nbsp; &amp;nbsp; &amp;nbsp; &amp;nbsp; &amp;nbsp; &amp;nbsp; &amp;nbsp; &amp;nbsp; &amp;nbsp; &amp;nbsp; &lt;span style=&quot;color: #c586c0;&quot;&gt;if&lt;/span&gt; (&lt;span style=&quot;color: #9cdcfe;&quot;&gt;temp&lt;/span&gt;[&lt;span style=&quot;color: #9cdcfe;&quot;&gt;i&lt;/span&gt;].&lt;span style=&quot;color: #9cdcfe;&quot;&gt;book_id&lt;/span&gt; &lt;span style=&quot;color: #d4d4d4;&quot;&gt;==&lt;/span&gt; &lt;span style=&quot;color: #9cdcfe;&quot;&gt;find_id&lt;/span&gt;)&lt;/div&gt;&lt;div&gt;&amp;nbsp; &amp;nbsp; &amp;nbsp; &amp;nbsp; &amp;nbsp; &amp;nbsp; &amp;nbsp; &amp;nbsp; &amp;nbsp; &amp;nbsp; &amp;nbsp; &amp;nbsp; &lt;span style=&quot;color: #dcdcaa;&quot;&gt;input&lt;/span&gt;(&lt;span style=&quot;color: #d4d4d4;&quot;&gt;&amp;amp;&lt;/span&gt;&lt;span style=&quot;color: #9cdcfe;&quot;&gt;temp&lt;/span&gt;[&lt;span style=&quot;color: #9cdcfe;&quot;&gt;i&lt;/span&gt;]);&lt;/div&gt;&lt;div&gt;&amp;nbsp; &amp;nbsp; &amp;nbsp; &amp;nbsp; &amp;nbsp; &amp;nbsp; &amp;nbsp; &amp;nbsp; }&lt;/div&gt;&lt;/div&gt;&lt;/div&gt;" style="rounded=0;whiteSpace=wrap;html=1;" parent="WIyWlLk6GJQsqaUBKTNV-1" vertex="1">
          <mxGeometry x="230" y="1490" width="460" height="60" as="geometry" />
        </mxCell>
        <mxCell id="a3jVgf21ex80bcbjZ_tH-0" style="edgeStyle=orthogonalEdgeStyle;rounded=0;orthogonalLoop=1;jettySize=auto;html=1;exitX=1;exitY=0.5;exitDx=0;exitDy=0;entryX=1;entryY=0.25;entryDx=0;entryDy=0;" edge="1" parent="WIyWlLk6GJQsqaUBKTNV-1" source="HDL38AltIUm5IQfEKSuB-2" target="HDL38AltIUm5IQfEKSuB-2">
          <mxGeometry relative="1" as="geometry" />
        </mxCell>
        <mxCell id="a3jVgf21ex80bcbjZ_tH-3" value="" style="edgeStyle=orthogonalEdgeStyle;rounded=0;orthogonalLoop=1;jettySize=auto;html=1;" edge="1" parent="WIyWlLk6GJQsqaUBKTNV-1" source="a3jVgf21ex80bcbjZ_tH-1" target="a3jVgf21ex80bcbjZ_tH-2">
          <mxGeometry relative="1" as="geometry" />
        </mxCell>
        <mxCell id="a3jVgf21ex80bcbjZ_tH-1" value="choice == 6" style="rhombus;whiteSpace=wrap;html=1;" vertex="1" parent="WIyWlLk6GJQsqaUBKTNV-1">
          <mxGeometry x="50" y="1650" width="80" height="80" as="geometry" />
        </mxCell>
        <mxCell id="a3jVgf21ex80bcbjZ_tH-2" value="&lt;div style=&quot;color: rgb(204, 204, 204); background-color: rgb(31, 31, 31); font-family: Consolas, &amp;quot;Courier New&amp;quot;, monospace; font-size: 14px; line-height: 19px;&quot;&gt;&lt;div&gt;int &lt;span style=&quot;color: #9cdcfe;&quot;&gt;sort_choice&lt;/span&gt;;&lt;/div&gt;&lt;div&gt;&amp;nbsp; &amp;nbsp; &amp;nbsp; &amp;nbsp; &amp;nbsp; &amp;nbsp; &amp;nbsp; &amp;nbsp; &lt;span style=&quot;color: #dcdcaa;&quot;&gt;printf&lt;/span&gt;(&lt;span style=&quot;color: #ce9178;&quot;&gt;&quot;lua chon cach sap xep:&lt;/span&gt;&lt;span style=&quot;color: #d7ba7d;&quot;&gt;\n&lt;/span&gt;&lt;span style=&quot;color: #ce9178;&quot;&gt;&quot;&lt;/span&gt;);&lt;/div&gt;&lt;div&gt;&amp;nbsp; &amp;nbsp; &amp;nbsp; &amp;nbsp; &amp;nbsp; &amp;nbsp; &amp;nbsp; &amp;nbsp; &lt;span style=&quot;color: #dcdcaa;&quot;&gt;printf&lt;/span&gt;(&lt;span style=&quot;color: #ce9178;&quot;&gt;&quot;1.tang dan&lt;/span&gt;&lt;span style=&quot;color: #d7ba7d;&quot;&gt;\n&lt;/span&gt;&lt;span style=&quot;color: #ce9178;&quot;&gt;&quot;&lt;/span&gt;);&lt;/div&gt;&lt;div&gt;&amp;nbsp; &amp;nbsp; &amp;nbsp; &amp;nbsp; &amp;nbsp; &amp;nbsp; &amp;nbsp; &amp;nbsp; &lt;span style=&quot;color: #dcdcaa;&quot;&gt;printf&lt;/span&gt;(&lt;span style=&quot;color: #ce9178;&quot;&gt;&quot;2.giam dan&lt;/span&gt;&lt;span style=&quot;color: #d7ba7d;&quot;&gt;\n&lt;/span&gt;&lt;span style=&quot;color: #ce9178;&quot;&gt;&quot;&lt;/span&gt;);&lt;/div&gt;&lt;div&gt;&amp;nbsp; &amp;nbsp; &amp;nbsp; &amp;nbsp; &amp;nbsp; &amp;nbsp; &amp;nbsp; &amp;nbsp; &lt;span style=&quot;color: #dcdcaa;&quot;&gt;scanf&lt;/span&gt;(&lt;span style=&quot;color: #ce9178;&quot;&gt;&quot;&lt;/span&gt;&lt;span style=&quot;color: #9cdcfe;&quot;&gt;%d&lt;/span&gt;&lt;span style=&quot;color: #ce9178;&quot;&gt;&quot;&lt;/span&gt;,&lt;span style=&quot;color: #d4d4d4;&quot;&gt;&amp;amp;&lt;/span&gt;&lt;span style=&quot;color: #9cdcfe;&quot;&gt;sort_choice&lt;/span&gt;);&lt;/div&gt;&lt;div&gt;&amp;nbsp; &amp;nbsp; &amp;nbsp; &amp;nbsp; &amp;nbsp; &amp;nbsp; &amp;nbsp; &amp;nbsp; &lt;span style=&quot;color: #c586c0;&quot;&gt;switch&lt;/span&gt;(&lt;span style=&quot;color: #9cdcfe;&quot;&gt;sort_choice&lt;/span&gt;){&lt;/div&gt;&lt;div&gt;&amp;nbsp; &amp;nbsp; &amp;nbsp; &amp;nbsp; &amp;nbsp; &amp;nbsp; &amp;nbsp; &amp;nbsp; &amp;nbsp; &amp;nbsp; &lt;span style=&quot;color: #c586c0;&quot;&gt;case&lt;/span&gt; &lt;span style=&quot;color: #b5cea8;&quot;&gt;1&lt;/span&gt;:&lt;/div&gt;&lt;div&gt;&amp;nbsp; &amp;nbsp; &amp;nbsp; &amp;nbsp; &amp;nbsp; &amp;nbsp; &amp;nbsp; &amp;nbsp; &amp;nbsp; &amp;nbsp; &amp;nbsp; &amp;nbsp; &lt;span style=&quot;color: #dcdcaa;&quot;&gt;price_sort_increase&lt;/span&gt;(&lt;span style=&quot;color: #9cdcfe;&quot;&gt;temp&lt;/span&gt;,&lt;span style=&quot;color: #9cdcfe;&quot;&gt;index&lt;/span&gt;);&lt;/div&gt;&lt;div&gt;&amp;nbsp; &amp;nbsp; &amp;nbsp; &amp;nbsp; &amp;nbsp; &amp;nbsp; &amp;nbsp; &amp;nbsp; &amp;nbsp; &amp;nbsp; &amp;nbsp; &amp;nbsp; &lt;span style=&quot;color: #c586c0;&quot;&gt;break&lt;/span&gt;;&lt;/div&gt;&lt;div&gt;&amp;nbsp; &amp;nbsp; &amp;nbsp; &amp;nbsp; &amp;nbsp; &amp;nbsp; &amp;nbsp; &amp;nbsp; &amp;nbsp; &amp;nbsp; &lt;span style=&quot;color: #c586c0;&quot;&gt;case&lt;/span&gt; &lt;span style=&quot;color: #b5cea8;&quot;&gt;2&lt;/span&gt;:&lt;/div&gt;&lt;div&gt;&amp;nbsp; &amp;nbsp; &amp;nbsp; &amp;nbsp; &amp;nbsp; &amp;nbsp; &amp;nbsp; &amp;nbsp; &amp;nbsp; &amp;nbsp; &amp;nbsp; &amp;nbsp; &lt;span style=&quot;color: #dcdcaa;&quot;&gt;price_sort_decrease&lt;/span&gt;(&lt;span style=&quot;color: #9cdcfe;&quot;&gt;temp&lt;/span&gt;,&lt;span style=&quot;color: #9cdcfe;&quot;&gt;index&lt;/span&gt;);&lt;/div&gt;&lt;div&gt;&amp;nbsp; &amp;nbsp; &amp;nbsp; &amp;nbsp; &amp;nbsp; &amp;nbsp; &amp;nbsp; &amp;nbsp; &amp;nbsp; &amp;nbsp; &amp;nbsp; &amp;nbsp; &lt;span style=&quot;color: #c586c0;&quot;&gt;break&lt;/span&gt;;&lt;/div&gt;&lt;div&gt;&amp;nbsp; &amp;nbsp; &amp;nbsp; &amp;nbsp; &amp;nbsp; &amp;nbsp; &amp;nbsp; &amp;nbsp; &amp;nbsp; &amp;nbsp; &lt;span style=&quot;color: #c586c0;&quot;&gt;default&lt;/span&gt;:&lt;/div&gt;&lt;div&gt;&amp;nbsp; &amp;nbsp; &amp;nbsp; &amp;nbsp; &amp;nbsp; &amp;nbsp; &amp;nbsp; &amp;nbsp; &amp;nbsp; &amp;nbsp; &amp;nbsp; &amp;nbsp; &lt;span style=&quot;color: #dcdcaa;&quot;&gt;printf&lt;/span&gt;(&lt;span style=&quot;color: #ce9178;&quot;&gt;&quot;khong hop le&quot;&lt;/span&gt;);&lt;/div&gt;&lt;div&gt;&amp;nbsp; &amp;nbsp; &amp;nbsp; &amp;nbsp; &amp;nbsp; &amp;nbsp; &amp;nbsp; &amp;nbsp; &amp;nbsp; &amp;nbsp; &amp;nbsp; &amp;nbsp; &lt;span style=&quot;color: #c586c0;&quot;&gt;break&lt;/span&gt;; &amp;nbsp; &amp;nbsp; &amp;nbsp; &amp;nbsp; &amp;nbsp; &amp;nbsp; &amp;nbsp; &amp;nbsp; &amp;nbsp; &lt;/div&gt;&lt;div&gt;&amp;nbsp; &amp;nbsp; &amp;nbsp; &amp;nbsp; &amp;nbsp; &amp;nbsp; &amp;nbsp; &amp;nbsp; }&lt;/div&gt;&lt;/div&gt;" style="whiteSpace=wrap;html=1;" vertex="1" parent="WIyWlLk6GJQsqaUBKTNV-1">
          <mxGeometry x="170" y="1730" width="610" height="50" as="geometry" />
        </mxCell>
        <mxCell id="a3jVgf21ex80bcbjZ_tH-6" value="" style="edgeStyle=orthogonalEdgeStyle;rounded=0;orthogonalLoop=1;jettySize=auto;html=1;" edge="1" parent="WIyWlLk6GJQsqaUBKTNV-1" source="a3jVgf21ex80bcbjZ_tH-4" target="a3jVgf21ex80bcbjZ_tH-5">
          <mxGeometry relative="1" as="geometry" />
        </mxCell>
        <mxCell id="a3jVgf21ex80bcbjZ_tH-4" value="price_sort_increse" style="shape=parallelogram;perimeter=parallelogramPerimeter;whiteSpace=wrap;html=1;fixedSize=1;" vertex="1" parent="WIyWlLk6GJQsqaUBKTNV-1">
          <mxGeometry x="-620" y="-140" width="120" height="60" as="geometry" />
        </mxCell>
        <mxCell id="a3jVgf21ex80bcbjZ_tH-5" value="&lt;div style=&quot;color: rgb(204, 204, 204); background-color: rgb(31, 31, 31); font-family: Consolas, &amp;quot;Courier New&amp;quot;, monospace; font-size: 14px; line-height: 19px;&quot;&gt;&lt;div&gt;void &lt;span style=&quot;color: #dcdcaa;&quot;&gt;price_sort_increase&lt;/span&gt;(&lt;span style=&quot;color: #4ec9b0;&quot;&gt;book&lt;/span&gt; &lt;span style=&quot;color: #9cdcfe;&quot;&gt;temp&lt;/span&gt;&lt;span style=&quot;color: #569cd6;&quot;&gt;[]&lt;/span&gt;, &lt;span style=&quot;color: #569cd6;&quot;&gt;int&lt;/span&gt; &lt;span style=&quot;color: #9cdcfe;&quot;&gt;index&lt;/span&gt;){&lt;/div&gt;&lt;div&gt;&amp;nbsp; &amp;nbsp; &lt;span style=&quot;color: #c586c0;&quot;&gt;for&lt;/span&gt; (&lt;span style=&quot;color: #569cd6;&quot;&gt;int&lt;/span&gt; &lt;span style=&quot;color: #9cdcfe;&quot;&gt;i&lt;/span&gt;&lt;span style=&quot;color: #d4d4d4;&quot;&gt;=&lt;/span&gt;&lt;span style=&quot;color: #b5cea8;&quot;&gt;0&lt;/span&gt;;&lt;span style=&quot;color: #9cdcfe;&quot;&gt;i&lt;/span&gt;&lt;span style=&quot;color: #d4d4d4;&quot;&gt;&amp;lt;&lt;/span&gt;&lt;span style=&quot;color: #9cdcfe;&quot;&gt;index&lt;/span&gt;&lt;span style=&quot;color: #d4d4d4;&quot;&gt;-&lt;/span&gt;&lt;span style=&quot;color: #b5cea8;&quot;&gt;1&lt;/span&gt;;&lt;span style=&quot;color: #9cdcfe;&quot;&gt;i&lt;/span&gt;&lt;span style=&quot;color: #d4d4d4;&quot;&gt;++&lt;/span&gt;){&lt;/div&gt;&lt;div&gt;&amp;nbsp; &amp;nbsp; &amp;nbsp; &amp;nbsp; &lt;span style=&quot;color: #c586c0;&quot;&gt;for&lt;/span&gt; (&lt;span style=&quot;color: #569cd6;&quot;&gt;int&lt;/span&gt; &lt;span style=&quot;color: #9cdcfe;&quot;&gt;j&lt;/span&gt;&lt;span style=&quot;color: #d4d4d4;&quot;&gt;=&lt;/span&gt;&lt;span style=&quot;color: #9cdcfe;&quot;&gt;i&lt;/span&gt;&lt;span style=&quot;color: #d4d4d4;&quot;&gt;+&lt;/span&gt;&lt;span style=&quot;color: #b5cea8;&quot;&gt;1&lt;/span&gt;;&lt;span style=&quot;color: #9cdcfe;&quot;&gt;j&lt;/span&gt;&lt;span style=&quot;color: #d4d4d4;&quot;&gt;&amp;lt;&lt;/span&gt;&lt;span style=&quot;color: #9cdcfe;&quot;&gt;index&lt;/span&gt;;&lt;span style=&quot;color: #9cdcfe;&quot;&gt;j&lt;/span&gt;&lt;span style=&quot;color: #d4d4d4;&quot;&gt;++&lt;/span&gt;) {&lt;/div&gt;&lt;div&gt;&amp;nbsp; &amp;nbsp; &amp;nbsp; &amp;nbsp; &amp;nbsp; &amp;nbsp; &lt;span style=&quot;color: #c586c0;&quot;&gt;if&lt;/span&gt; (&lt;span style=&quot;color: #9cdcfe;&quot;&gt;temp&lt;/span&gt;[&lt;span style=&quot;color: #9cdcfe;&quot;&gt;i&lt;/span&gt;].&lt;span style=&quot;color: #9cdcfe;&quot;&gt;price&lt;/span&gt; &lt;span style=&quot;color: #d4d4d4;&quot;&gt;&amp;gt;&lt;/span&gt; &lt;span style=&quot;color: #9cdcfe;&quot;&gt;temp&lt;/span&gt;[&lt;span style=&quot;color: #9cdcfe;&quot;&gt;j&lt;/span&gt;].&lt;span style=&quot;color: #9cdcfe;&quot;&gt;price&lt;/span&gt;){&lt;/div&gt;&lt;div&gt;&amp;nbsp; &amp;nbsp; &amp;nbsp; &amp;nbsp; &amp;nbsp; &amp;nbsp; &amp;nbsp; &amp;nbsp; &lt;span style=&quot;color: #4ec9b0;&quot;&gt;book&lt;/span&gt; &lt;span style=&quot;color: #9cdcfe;&quot;&gt;t&lt;/span&gt; &lt;span style=&quot;color: #d4d4d4;&quot;&gt;=&lt;/span&gt; &lt;span style=&quot;color: #9cdcfe;&quot;&gt;temp&lt;/span&gt;[&lt;span style=&quot;color: #9cdcfe;&quot;&gt;i&lt;/span&gt;];&lt;/div&gt;&lt;div&gt;&amp;nbsp; &amp;nbsp; &amp;nbsp; &amp;nbsp; &amp;nbsp; &amp;nbsp; &amp;nbsp; &amp;nbsp; &lt;span style=&quot;color: #9cdcfe;&quot;&gt;temp&lt;/span&gt;[&lt;span style=&quot;color: #9cdcfe;&quot;&gt;i&lt;/span&gt;] &lt;span style=&quot;color: #d4d4d4;&quot;&gt;=&lt;/span&gt; &lt;span style=&quot;color: #9cdcfe;&quot;&gt;temp&lt;/span&gt;[&lt;span style=&quot;color: #9cdcfe;&quot;&gt;j&lt;/span&gt;];&lt;/div&gt;&lt;div&gt;&amp;nbsp; &amp;nbsp; &amp;nbsp; &amp;nbsp; &amp;nbsp; &amp;nbsp; &amp;nbsp; &amp;nbsp; &lt;span style=&quot;color: #9cdcfe;&quot;&gt;temp&lt;/span&gt;[&lt;span style=&quot;color: #9cdcfe;&quot;&gt;j&lt;/span&gt;] &lt;span style=&quot;color: #d4d4d4;&quot;&gt;=&lt;/span&gt; &lt;span style=&quot;color: #9cdcfe;&quot;&gt;t&lt;/span&gt;;&lt;/div&gt;&lt;div&gt;&amp;nbsp; &amp;nbsp; &amp;nbsp; &amp;nbsp; &amp;nbsp; &amp;nbsp; }&lt;/div&gt;&lt;div&gt;&amp;nbsp; &amp;nbsp; &amp;nbsp; &amp;nbsp; }&lt;/div&gt;&lt;div&gt;&amp;nbsp; &amp;nbsp; }&lt;/div&gt;&lt;div&gt;}&lt;/div&gt;&lt;/div&gt;" style="whiteSpace=wrap;html=1;" vertex="1" parent="WIyWlLk6GJQsqaUBKTNV-1">
          <mxGeometry x="-420" y="-140" width="480" height="60" as="geometry" />
        </mxCell>
        <mxCell id="a3jVgf21ex80bcbjZ_tH-7" value="" style="edgeStyle=orthogonalEdgeStyle;rounded=0;orthogonalLoop=1;jettySize=auto;html=1;" edge="1" parent="WIyWlLk6GJQsqaUBKTNV-1" source="a3jVgf21ex80bcbjZ_tH-8" target="a3jVgf21ex80bcbjZ_tH-9">
          <mxGeometry relative="1" as="geometry" />
        </mxCell>
        <mxCell id="a3jVgf21ex80bcbjZ_tH-8" value="price_sort_decrese" style="shape=parallelogram;perimeter=parallelogramPerimeter;whiteSpace=wrap;html=1;fixedSize=1;" vertex="1" parent="WIyWlLk6GJQsqaUBKTNV-1">
          <mxGeometry x="-610" y="120" width="120" height="60" as="geometry" />
        </mxCell>
        <mxCell id="a3jVgf21ex80bcbjZ_tH-9" value="&lt;div style=&quot;background-color: rgb(31, 31, 31); font-family: Consolas, &amp;quot;Courier New&amp;quot;, monospace; font-size: 14px; line-height: 19px;&quot;&gt;&lt;div style=&quot;color: rgb(204, 204, 204);&quot;&gt;void &lt;span style=&quot;color: #dcdcaa;&quot;&gt;price_sort_increase&lt;/span&gt;(&lt;span style=&quot;color: #4ec9b0;&quot;&gt;book&lt;/span&gt; &lt;span style=&quot;color: #9cdcfe;&quot;&gt;temp&lt;/span&gt;&lt;span style=&quot;color: #569cd6;&quot;&gt;[]&lt;/span&gt;, &lt;span style=&quot;color: #569cd6;&quot;&gt;int&lt;/span&gt; &lt;span style=&quot;color: #9cdcfe;&quot;&gt;index&lt;/span&gt;){&lt;/div&gt;&lt;div style=&quot;color: rgb(204, 204, 204);&quot;&gt;&amp;nbsp; &amp;nbsp; &lt;span style=&quot;color: #c586c0;&quot;&gt;for&lt;/span&gt; (&lt;span style=&quot;color: #569cd6;&quot;&gt;int&lt;/span&gt; &lt;span style=&quot;color: #9cdcfe;&quot;&gt;i&lt;/span&gt;&lt;span style=&quot;color: #d4d4d4;&quot;&gt;=&lt;/span&gt;&lt;span style=&quot;color: #b5cea8;&quot;&gt;0&lt;/span&gt;;&lt;span style=&quot;color: #9cdcfe;&quot;&gt;i&lt;/span&gt;&lt;span style=&quot;color: #d4d4d4;&quot;&gt;&amp;lt;&lt;/span&gt;&lt;span style=&quot;color: #9cdcfe;&quot;&gt;index&lt;/span&gt;&lt;span style=&quot;color: #d4d4d4;&quot;&gt;-&lt;/span&gt;&lt;span style=&quot;color: #b5cea8;&quot;&gt;1&lt;/span&gt;;&lt;span style=&quot;color: #9cdcfe;&quot;&gt;i&lt;/span&gt;&lt;span style=&quot;color: #d4d4d4;&quot;&gt;++&lt;/span&gt;){&lt;/div&gt;&lt;div style=&quot;color: rgb(204, 204, 204);&quot;&gt;&amp;nbsp; &amp;nbsp; &amp;nbsp; &amp;nbsp; &lt;span style=&quot;color: #c586c0;&quot;&gt;for&lt;/span&gt; (&lt;span style=&quot;color: #569cd6;&quot;&gt;int&lt;/span&gt; &lt;span style=&quot;color: #9cdcfe;&quot;&gt;j&lt;/span&gt;&lt;span style=&quot;color: #d4d4d4;&quot;&gt;=&lt;/span&gt;&lt;span style=&quot;color: #9cdcfe;&quot;&gt;i&lt;/span&gt;&lt;span style=&quot;color: #d4d4d4;&quot;&gt;+&lt;/span&gt;&lt;span style=&quot;color: #b5cea8;&quot;&gt;1&lt;/span&gt;;&lt;span style=&quot;color: #9cdcfe;&quot;&gt;j&lt;/span&gt;&lt;span style=&quot;color: #d4d4d4;&quot;&gt;&amp;lt;&lt;/span&gt;&lt;span style=&quot;color: #9cdcfe;&quot;&gt;index&lt;/span&gt;;&lt;span style=&quot;color: #9cdcfe;&quot;&gt;j&lt;/span&gt;&lt;span style=&quot;color: #d4d4d4;&quot;&gt;++&lt;/span&gt;) {&lt;/div&gt;&lt;div style=&quot;&quot;&gt;&lt;font color=&quot;#cccccc&quot;&gt;&amp;nbsp; &amp;nbsp; &amp;nbsp; &amp;nbsp; &amp;nbsp; &amp;nbsp; &lt;/font&gt;&lt;span style=&quot;color: rgb(197, 134, 192);&quot;&gt;if&lt;/span&gt;&lt;font color=&quot;#cccccc&quot;&gt; (&lt;/font&gt;&lt;span style=&quot;color: rgb(156, 220, 254);&quot;&gt;temp&lt;/span&gt;&lt;font color=&quot;#cccccc&quot;&gt;[&lt;/font&gt;&lt;span style=&quot;color: rgb(156, 220, 254);&quot;&gt;i&lt;/span&gt;&lt;font color=&quot;#cccccc&quot;&gt;].&lt;/font&gt;&lt;span style=&quot;color: rgb(156, 220, 254);&quot;&gt;price&lt;/span&gt;&lt;font color=&quot;#cccccc&quot;&gt;&amp;nbsp;&lt;/font&gt;&lt;font color=&quot;#d4d4d4&quot;&gt;&amp;lt;&lt;/font&gt;&lt;font color=&quot;#cccccc&quot;&gt;&amp;nbsp;&lt;/font&gt;&lt;span style=&quot;color: rgb(156, 220, 254);&quot;&gt;temp&lt;/span&gt;&lt;font color=&quot;#cccccc&quot;&gt;[&lt;/font&gt;&lt;span style=&quot;color: rgb(156, 220, 254);&quot;&gt;j&lt;/span&gt;&lt;font color=&quot;#cccccc&quot;&gt;].&lt;/font&gt;&lt;span style=&quot;color: rgb(156, 220, 254);&quot;&gt;price&lt;/span&gt;&lt;font color=&quot;#cccccc&quot;&gt;){&lt;/font&gt;&lt;/div&gt;&lt;div style=&quot;color: rgb(204, 204, 204);&quot;&gt;&amp;nbsp; &amp;nbsp; &amp;nbsp; &amp;nbsp; &amp;nbsp; &amp;nbsp; &amp;nbsp; &amp;nbsp; &lt;span style=&quot;color: #4ec9b0;&quot;&gt;book&lt;/span&gt; &lt;span style=&quot;color: #9cdcfe;&quot;&gt;t&lt;/span&gt; &lt;span style=&quot;color: #d4d4d4;&quot;&gt;=&lt;/span&gt; &lt;span style=&quot;color: #9cdcfe;&quot;&gt;temp&lt;/span&gt;[&lt;span style=&quot;color: #9cdcfe;&quot;&gt;i&lt;/span&gt;];&lt;/div&gt;&lt;div style=&quot;color: rgb(204, 204, 204);&quot;&gt;&amp;nbsp; &amp;nbsp; &amp;nbsp; &amp;nbsp; &amp;nbsp; &amp;nbsp; &amp;nbsp; &amp;nbsp; &lt;span style=&quot;color: #9cdcfe;&quot;&gt;temp&lt;/span&gt;[&lt;span style=&quot;color: #9cdcfe;&quot;&gt;i&lt;/span&gt;] &lt;span style=&quot;color: #d4d4d4;&quot;&gt;=&lt;/span&gt; &lt;span style=&quot;color: #9cdcfe;&quot;&gt;temp&lt;/span&gt;[&lt;span style=&quot;color: #9cdcfe;&quot;&gt;j&lt;/span&gt;];&lt;/div&gt;&lt;div style=&quot;color: rgb(204, 204, 204);&quot;&gt;&amp;nbsp; &amp;nbsp; &amp;nbsp; &amp;nbsp; &amp;nbsp; &amp;nbsp; &amp;nbsp; &amp;nbsp; &lt;span style=&quot;color: #9cdcfe;&quot;&gt;temp&lt;/span&gt;[&lt;span style=&quot;color: #9cdcfe;&quot;&gt;j&lt;/span&gt;] &lt;span style=&quot;color: #d4d4d4;&quot;&gt;=&lt;/span&gt; &lt;span style=&quot;color: #9cdcfe;&quot;&gt;t&lt;/span&gt;;&lt;/div&gt;&lt;div style=&quot;color: rgb(204, 204, 204);&quot;&gt;&amp;nbsp; &amp;nbsp; &amp;nbsp; &amp;nbsp; &amp;nbsp; &amp;nbsp; }&lt;/div&gt;&lt;div style=&quot;color: rgb(204, 204, 204);&quot;&gt;&amp;nbsp; &amp;nbsp; &amp;nbsp; &amp;nbsp; }&lt;/div&gt;&lt;div style=&quot;color: rgb(204, 204, 204);&quot;&gt;&amp;nbsp; &amp;nbsp; }&lt;/div&gt;&lt;div style=&quot;color: rgb(204, 204, 204);&quot;&gt;}&lt;/div&gt;&lt;/div&gt;" style="whiteSpace=wrap;html=1;" vertex="1" parent="WIyWlLk6GJQsqaUBKTNV-1">
          <mxGeometry x="-410" y="120" width="480" height="60" as="geometry" />
        </mxCell>
        <mxCell id="a3jVgf21ex80bcbjZ_tH-12" value="" style="edgeStyle=orthogonalEdgeStyle;rounded=0;orthogonalLoop=1;jettySize=auto;html=1;" edge="1" parent="WIyWlLk6GJQsqaUBKTNV-1" source="a3jVgf21ex80bcbjZ_tH-10" target="a3jVgf21ex80bcbjZ_tH-11">
          <mxGeometry relative="1" as="geometry" />
        </mxCell>
        <mxCell id="a3jVgf21ex80bcbjZ_tH-10" value="choice == 7" style="rhombus;whiteSpace=wrap;html=1;" vertex="1" parent="WIyWlLk6GJQsqaUBKTNV-1">
          <mxGeometry x="50" y="1970" width="80" height="80" as="geometry" />
        </mxCell>
        <mxCell id="a3jVgf21ex80bcbjZ_tH-11" value="&lt;div style=&quot;color: rgb(204, 204, 204); background-color: rgb(31, 31, 31); font-family: Consolas, &amp;quot;Courier New&amp;quot;, monospace; font-size: 14px; line-height: 19px;&quot;&gt;&lt;div&gt;char &lt;span style=&quot;color: #9cdcfe;&quot;&gt;find_name&lt;/span&gt;[&lt;span style=&quot;color: #b5cea8;&quot;&gt;10&lt;/span&gt;];&lt;/div&gt;&lt;div&gt;&amp;nbsp; &amp;nbsp; &amp;nbsp; &amp;nbsp; &amp;nbsp; &amp;nbsp; &amp;nbsp; &amp;nbsp; &lt;span style=&quot;color: #dcdcaa;&quot;&gt;printf&lt;/span&gt;(&lt;span style=&quot;color: #ce9178;&quot;&gt;&quot;nhap vao ten can tim:&quot;&lt;/span&gt;);&lt;/div&gt;&lt;div&gt;&amp;nbsp; &amp;nbsp; &amp;nbsp; &amp;nbsp; &amp;nbsp; &amp;nbsp; &amp;nbsp; &amp;nbsp; &lt;span style=&quot;color: #dcdcaa;&quot;&gt;fgets&lt;/span&gt;(&lt;span style=&quot;color: #9cdcfe;&quot;&gt;find_name&lt;/span&gt;,&lt;span style=&quot;color: #b5cea8;&quot;&gt;10&lt;/span&gt;,&lt;span style=&quot;color: #569cd6;&quot;&gt;stdin&lt;/span&gt;);&lt;/div&gt;&lt;div&gt;&amp;nbsp; &amp;nbsp; &amp;nbsp; &amp;nbsp; &amp;nbsp; &amp;nbsp; &amp;nbsp; &amp;nbsp; &lt;span style=&quot;color: #c586c0;&quot;&gt;for&lt;/span&gt; (&lt;span style=&quot;color: #9cdcfe;&quot;&gt;i&lt;/span&gt;&lt;span style=&quot;color: #d4d4d4;&quot;&gt;=&lt;/span&gt;&lt;span style=&quot;color: #b5cea8;&quot;&gt;0&lt;/span&gt;;&lt;span style=&quot;color: #9cdcfe;&quot;&gt;i&lt;/span&gt;&lt;span style=&quot;color: #d4d4d4;&quot;&gt;&amp;lt;&lt;/span&gt;&lt;span style=&quot;color: #9cdcfe;&quot;&gt;index&lt;/span&gt;;&lt;span style=&quot;color: #9cdcfe;&quot;&gt;i&lt;/span&gt;&lt;span style=&quot;color: #d4d4d4;&quot;&gt;++&lt;/span&gt;) {&lt;/div&gt;&lt;div&gt;&amp;nbsp; &amp;nbsp; &amp;nbsp; &amp;nbsp; &amp;nbsp; &amp;nbsp; &amp;nbsp; &amp;nbsp; &amp;nbsp; &amp;nbsp; &lt;span style=&quot;color: #c586c0;&quot;&gt;if&lt;/span&gt; ( &lt;span style=&quot;color: #dcdcaa;&quot;&gt;strcmp&lt;/span&gt;(&lt;span style=&quot;color: #9cdcfe;&quot;&gt;temp&lt;/span&gt;[&lt;span style=&quot;color: #9cdcfe;&quot;&gt;i&lt;/span&gt;].&lt;span style=&quot;color: #9cdcfe;&quot;&gt;book_name&lt;/span&gt;,&lt;span style=&quot;color: #9cdcfe;&quot;&gt;find_name&lt;/span&gt;) ) &amp;nbsp;&lt;/div&gt;&lt;div&gt;&amp;nbsp; &amp;nbsp; &amp;nbsp; &amp;nbsp; &amp;nbsp; &amp;nbsp; &amp;nbsp; &amp;nbsp; &amp;nbsp; &amp;nbsp; &amp;nbsp; &amp;nbsp; &lt;span style=&quot;color: #dcdcaa;&quot;&gt;output&lt;/span&gt;(&lt;span style=&quot;color: #d4d4d4;&quot;&gt;&amp;amp;&lt;/span&gt;&lt;span style=&quot;color: #9cdcfe;&quot;&gt;temp&lt;/span&gt;[&lt;span style=&quot;color: #9cdcfe;&quot;&gt;i&lt;/span&gt;]);&lt;/div&gt;&lt;div&gt;&amp;nbsp; &amp;nbsp; &amp;nbsp; &amp;nbsp; &amp;nbsp; &amp;nbsp; &amp;nbsp; &amp;nbsp; }&lt;/div&gt;&lt;/div&gt;" style="whiteSpace=wrap;html=1;" vertex="1" parent="WIyWlLk6GJQsqaUBKTNV-1">
          <mxGeometry x="380" y="2060" width="610" height="60" as="geometry" />
        </mxCell>
        <mxCell id="a3jVgf21ex80bcbjZ_tH-15" value="" style="edgeStyle=orthogonalEdgeStyle;rounded=0;orthogonalLoop=1;jettySize=auto;html=1;" edge="1" parent="WIyWlLk6GJQsqaUBKTNV-1" source="a3jVgf21ex80bcbjZ_tH-13" target="a3jVgf21ex80bcbjZ_tH-14">
          <mxGeometry relative="1" as="geometry" />
        </mxCell>
        <mxCell id="a3jVgf21ex80bcbjZ_tH-13" value="choice == 8" style="rhombus;whiteSpace=wrap;html=1;" vertex="1" parent="WIyWlLk6GJQsqaUBKTNV-1">
          <mxGeometry x="50" y="2258" width="80" height="80" as="geometry" />
        </mxCell>
        <mxCell id="a3jVgf21ex80bcbjZ_tH-14" value="&lt;div style=&quot;color: rgb(204, 204, 204); background-color: rgb(31, 31, 31); font-family: Consolas, &amp;quot;Courier New&amp;quot;, monospace; font-size: 14px; line-height: 19px;&quot;&gt;&lt;div&gt;int &lt;span style=&quot;color: #9cdcfe;&quot;&gt;first_price&lt;/span&gt;,&lt;span style=&quot;color: #9cdcfe;&quot;&gt;last_price&lt;/span&gt;;&lt;/div&gt;&lt;div&gt;&amp;nbsp; &amp;nbsp; &amp;nbsp; &amp;nbsp; &amp;nbsp; &amp;nbsp; &amp;nbsp; &amp;nbsp; &lt;span style=&quot;color: #dcdcaa;&quot;&gt;printf&lt;/span&gt;(&lt;span style=&quot;color: #ce9178;&quot;&gt;&quot;nhap vao gia tri dau tien:&quot;&lt;/span&gt;);&lt;/div&gt;&lt;div&gt;&amp;nbsp; &amp;nbsp; &amp;nbsp; &amp;nbsp; &amp;nbsp; &amp;nbsp; &amp;nbsp; &amp;nbsp; &lt;span style=&quot;color: #dcdcaa;&quot;&gt;scanf&lt;/span&gt;(&lt;span style=&quot;color: #ce9178;&quot;&gt;&quot;&lt;/span&gt;&lt;span style=&quot;color: #9cdcfe;&quot;&gt;%d&lt;/span&gt;&lt;span style=&quot;color: #ce9178;&quot;&gt;&quot;&lt;/span&gt;,&lt;span style=&quot;color: #d4d4d4;&quot;&gt;&amp;amp;&lt;/span&gt;&lt;span style=&quot;color: #9cdcfe;&quot;&gt;first_price&lt;/span&gt;);&lt;/div&gt;&lt;div&gt;&amp;nbsp; &amp;nbsp; &amp;nbsp; &amp;nbsp; &amp;nbsp; &amp;nbsp; &amp;nbsp; &amp;nbsp; &lt;span style=&quot;color: #dcdcaa;&quot;&gt;printf&lt;/span&gt;(&lt;span style=&quot;color: #ce9178;&quot;&gt;&quot;nhap vao gia tri dau cuoi:&quot;&lt;/span&gt;);&lt;/div&gt;&lt;div&gt;&amp;nbsp; &amp;nbsp; &amp;nbsp; &amp;nbsp; &amp;nbsp; &amp;nbsp; &amp;nbsp; &amp;nbsp; &lt;span style=&quot;color: #dcdcaa;&quot;&gt;scanf&lt;/span&gt;(&lt;span style=&quot;color: #ce9178;&quot;&gt;&quot;&lt;/span&gt;&lt;span style=&quot;color: #9cdcfe;&quot;&gt;%d&lt;/span&gt;&lt;span style=&quot;color: #ce9178;&quot;&gt;&quot;&lt;/span&gt;,&lt;span style=&quot;color: #d4d4d4;&quot;&gt;&amp;amp;&lt;/span&gt;&lt;span style=&quot;color: #9cdcfe;&quot;&gt;last_price&lt;/span&gt;);&lt;/div&gt;&lt;div&gt;&amp;nbsp; &amp;nbsp; &amp;nbsp; &amp;nbsp; &amp;nbsp; &amp;nbsp; &amp;nbsp; &amp;nbsp; &lt;span style=&quot;color: #c586c0;&quot;&gt;for&lt;/span&gt; (&lt;span style=&quot;color: #9cdcfe;&quot;&gt;i&lt;/span&gt;&lt;span style=&quot;color: #d4d4d4;&quot;&gt;=&lt;/span&gt;&lt;span style=&quot;color: #b5cea8;&quot;&gt;0&lt;/span&gt;;&lt;span style=&quot;color: #9cdcfe;&quot;&gt;i&lt;/span&gt;&lt;span style=&quot;color: #d4d4d4;&quot;&gt;&amp;lt;&lt;/span&gt;&lt;span style=&quot;color: #9cdcfe;&quot;&gt;index&lt;/span&gt;;&lt;span style=&quot;color: #9cdcfe;&quot;&gt;i&lt;/span&gt;&lt;span style=&quot;color: #d4d4d4;&quot;&gt;++&lt;/span&gt;) {&lt;/div&gt;&lt;div&gt;&amp;nbsp; &amp;nbsp; &amp;nbsp; &amp;nbsp; &amp;nbsp; &amp;nbsp; &amp;nbsp; &amp;nbsp; &amp;nbsp; &amp;nbsp; &lt;span style=&quot;color: #c586c0;&quot;&gt;if&lt;/span&gt; ( (&lt;span style=&quot;color: #9cdcfe;&quot;&gt;temp&lt;/span&gt;[&lt;span style=&quot;color: #9cdcfe;&quot;&gt;i&lt;/span&gt;].&lt;span style=&quot;color: #9cdcfe;&quot;&gt;price&lt;/span&gt; &lt;span style=&quot;color: #d4d4d4;&quot;&gt;&amp;gt;&lt;/span&gt; &lt;span style=&quot;color: #9cdcfe;&quot;&gt;first_price&lt;/span&gt;) &lt;span style=&quot;color: #d4d4d4;&quot;&gt;&amp;amp;&amp;amp;&lt;/span&gt; (&lt;span style=&quot;color: #9cdcfe;&quot;&gt;temp&lt;/span&gt;[&lt;span style=&quot;color: #9cdcfe;&quot;&gt;i&lt;/span&gt;].&lt;span style=&quot;color: #9cdcfe;&quot;&gt;price&lt;/span&gt; &lt;span style=&quot;color: #d4d4d4;&quot;&gt;&amp;lt;&lt;/span&gt; &lt;span style=&quot;color: #9cdcfe;&quot;&gt;last_price&lt;/span&gt;))&lt;/div&gt;&lt;div&gt;&amp;nbsp; &amp;nbsp; &amp;nbsp; &amp;nbsp; &amp;nbsp; &amp;nbsp; &amp;nbsp; &amp;nbsp; &amp;nbsp; &amp;nbsp; &amp;nbsp; &amp;nbsp; &lt;span style=&quot;color: #dcdcaa;&quot;&gt;output&lt;/span&gt;(&lt;span style=&quot;color: #d4d4d4;&quot;&gt;&amp;amp;&lt;/span&gt;&lt;span style=&quot;color: #9cdcfe;&quot;&gt;temp&lt;/span&gt;[&lt;span style=&quot;color: #9cdcfe;&quot;&gt;i&lt;/span&gt;]);&lt;/div&gt;&lt;div&gt;&amp;nbsp; &amp;nbsp; &amp;nbsp; &amp;nbsp; &amp;nbsp; &amp;nbsp; &amp;nbsp; &amp;nbsp; }&lt;/div&gt;&lt;/div&gt;" style="whiteSpace=wrap;html=1;" vertex="1" parent="WIyWlLk6GJQsqaUBKTNV-1">
          <mxGeometry x="445" y="2300" width="665" height="60" as="geometry" />
        </mxCell>
        <mxCell id="a3jVgf21ex80bcbjZ_tH-16" style="edgeStyle=orthogonalEdgeStyle;rounded=0;orthogonalLoop=1;jettySize=auto;html=1;exitX=0.5;exitY=1;exitDx=0;exitDy=0;" edge="1" parent="WIyWlLk6GJQsqaUBKTNV-1" source="a3jVgf21ex80bcbjZ_tH-14" target="a3jVgf21ex80bcbjZ_tH-14">
          <mxGeometry relative="1" as="geometry" />
        </mxCell>
      </root>
    </mxGraphModel>
  </diagram>
</mxfile>
